<?xml version="1.0" encoding="utf-8" standalone="yes"?>
<!DOCTYPE svg PUBLIC "-//W3C//DTD SVG 1.1//EN" "http://www.w3.org/Graphics/SVG/1.1/DTD/svg11.dtd">
<svg width="589" height="442" viewBox="0 0 589 442" style="fill:none;stroke:none;fill-rule:evenodd;clip-rule:evenodd;stroke-linecap:round;stroke-linejoin:round;stroke-miterlimit:1.5;" version="1.1" xmlns="http://www.w3.org/2000/svg" xmlns:xlink="http://www.w3.org/1999/xlink"><style id="fontImports">@import url("https://fonts.googleapis.com/css2?family=Montserrat:wght@400;700&amp;display=block");</style><rect id="" x="0" y="0" width="588" height="441.824" style="fill: #ffffff;"></rect><g id="items" style="isolation: isolate"><g id="blend" style="mix-blend-mode:multiply"><g id="g-root-4.arrow-4_sy_1lymqcs1xejp5b-fill" data-item-order="-125010" data-item-id="4.arrow-4_sy_1lymqcs1xejp5b" data-item-class="Part Indexed Fill Stroke ColorStrokeBlack" data-item-index="4" data-renderer-id="0" transform="translate(118.48300170898438, 65.25)"><g id="4.arrow-4_sy_1lymqcs1xejp5b-fill" stroke="none" fill="#e3cd09"><g><path d="M 109.948998 194.416C 108.723998 183.011 110.213998 171.147 114.818998 159.771C 122.278998 141.341 136.502998 127.68 153.468998 120.492L 162.831998 142.59L 194.669998 63.937L 106.653998 10L 116.016998 32.098C 76.428998 48.872 43.239998 80.748 25.832998 123.75C 10.833998 160.804 9.999998 200.074 20.786998 235.556L 58.708998 173.674L 109.948998 194.416Z"></path></g></g></g><g id="g-root-3.arrow-3_sy_1uu9qlo1xejocm-fill" data-item-order="-125008" data-item-id="3.arrow-3_sy_1uu9qlo1xejocm" data-item-class="Part Indexed Fill Stroke ColorStrokeBlack" data-item-index="3" data-renderer-id="0" transform="translate(113.25399780273438, 228.925048828125)"><g id="3.arrow-3_sy_1uu9qlo1xejocm-fill" stroke="none" fill="#93c131"><g><path d="M 120.491002 51.201012L 142.590002 41.838012L 63.936002 10.000012L 10.000002 98.016012L 32.098002 88.653012C 48.872002 128.241012 80.748002 161.430012 123.750002 178.837012C 160.804002 193.836012 200.073002 194.671012 235.556002 183.883012L 173.674002 145.962012L 194.416002 94.721012C 183.011002 95.946012 171.147002 94.457012 159.770002 89.852012C 141.341002 82.391012 127.680002 68.167012 120.491002 51.201012Z"></path></g></g></g><g id="g-root-2.arrow-2_sy_1uu9qlo1xejocl-fill" data-item-order="-125006" data-item-id="2.arrow-2_sy_1uu9qlo1xejocl" data-item-class="Part Indexed Fill Stroke ColorStrokeBlack" data-item-index="2" data-renderer-id="0" transform="translate(276.928955078125, 193.26708984375)"><g id="2.arrow-2_sy_1uu9qlo1xejocl-fill" stroke="none" fill="#3bc482"><g><path d="M 10.000014 181.620002L 98.016014 235.557002L 88.653014 213.458002C 128.241014 196.685002 161.431014 164.809002 178.838014 121.806002C 193.837014 84.752002 194.671014 45.483002 183.883014 10.000002L 145.962014 71.882002L 94.721014 51.140002C 95.946014 62.546002 94.456014 74.409002 89.851014 85.786002C 82.391014 104.215002 68.167014 117.876002 51.201014 125.065002L 41.838014 102.967002L 10.000014 181.620002Z"></path></g></g></g><g id="g-root-1.arrow-1_sy_1uu9qlo1xejock-fill" data-item-order="-125004" data-item-id="1.arrow-1_sy_1uu9qlo1xejock" data-item-class="Part Indexed Indexed_1 Fill Stroke ColorStrokeBlack" data-item-index="1" data-renderer-id="0" transform="translate(241.27099609375, 70.47802734375)"><g id="1.arrow-1_sy_1uu9qlo1xejock-fill" stroke="none" fill="#17b0e3"><g><path d="M 51.140004 109.950003C 62.545004 108.725003 74.409004 110.214003 85.785004 114.820003C 104.215004 122.280003 117.876004 136.504003 125.064004 153.470003L 102.966004 162.833003L 181.620004 194.671003L 235.556004 106.655003L 213.458004 116.018003C 196.684004 76.430003 164.809004 43.240003 121.806004 25.833003C 84.752004 10.834003 45.482004 10.000003 10.000004 20.788003L 71.882004 58.709003L 51.140004 109.950003Z"></path></g></g></g><g id="g-root-tx_lazyload_zs5oto1xejp50-fill" data-item-order="0" data-item-id="tx_lazyload_zs5oto1xejp50" data-item-class="Label Stroke Title" data-item-index="none" data-renderer-id="0" transform="translate(182, 2)"><g id="tx_lazyload_zs5oto1xejp50-fill" stroke="none" fill="#4F92FF"><g><text style="font: bold 20px Montserrat, sans-serif; white-space: pre;"><tspan x="12.97" y="33" dominant-baseline="ideographic">Lazy Loading Prozess</tspan></text></g></g></g><g id="g-root-tx_ladezeit_1hit88c1xejpxk-fill" data-item-order="0" data-item-id="tx_ladezeit_1hit88c1xejpxk" data-item-class="Label Stroke Indexed ColorStrokeBlack" data-item-index="4" data-renderer-id="0" transform="translate(14, 98)"><g id="tx_ladezeit_1hit88c1xejpxk-fill" stroke="none" fill="#666666"><g><text style="font: 20px Montserrat, sans-serif; white-space: pre;"><tspan x="18.02" y="34" dominant-baseline="ideographic">Ladezeiten </tspan><tspan x="18.84" y="58" dominant-baseline="ideographic">verbessern</tspan></text></g></g></g><g id="g-root-tx_benutzer_147z6y41xejocr-fill" data-item-order="0" data-item-id="tx_benutzer_147z6y41xejocr" data-item-class="Label Stroke Indexed Indexed_1 ColorStrokeBlack" data-item-index="1" data-renderer-id="0" transform="translate(446.00006103515625, 98)"><g id="tx_benutzer_147z6y41xejocr-fill" stroke="none" fill="#666666"><g><text style="font: 20px Montserrat, sans-serif; white-space: pre;"><tspan x="12" y="34" dominant-baseline="ideographic">Benutzer </tspan><tspan x="12" y="58" dominant-baseline="ideographic">scrollt</tspan></text></g></g></g><g id="g-root-half_1hdtfjg1xemjnm-fill" data-item-order="0" data-item-id="half_1hdtfjg1xemjnm" data-item-class="Icon Stroke Indexed InsideFill InsideColorFill ColorStrokeBlack" data-item-index="4" data-renderer-id="0" transform="translate(182, 134)"></g><g id="g-root-2_142ze981xemi2t-fill" data-item-order="0" data-item-id="2_142ze981xemi2t" data-item-class="Icon Stroke Indexed Indexed_1 InsideFill InsideColorFill ColorStrokeBlack" data-item-index="1" data-renderer-id="0" transform="translate(350, 134)"></g><g id="g-root-2_1hdtfjg1xemjnn-fill" data-item-order="0" data-item-id="2_1hdtfjg1xemjnn" data-item-class="Icon Stroke Indexed InsideFill InsideColorFill ColorStrokeBlack" data-item-index="3" data-renderer-id="0" transform="translate(182, 302)"></g><g id="g-root-expa_18iswdo1xemhak-fill" data-item-order="0" data-item-id="expa_18iswdo1xemhak" data-item-class="Icon Stroke Indexed InsideFill InsideColorFill ColorStrokeBlack" data-item-index="2" data-renderer-id="0" transform="translate(350, 302)"></g><g id="g-root-tx_ressourc_1d3m7701xejnk1-fill" data-item-order="0" data-item-id="tx_ressourc_1d3m7701xejnk1" data-item-class="Label Stroke Indexed ColorStrokeBlack" data-item-index="3" data-renderer-id="0" transform="translate(2, 338)"><g id="tx_ressourc_1d3m7701xejnk1-fill" stroke="none" fill="#666666"><g><text style="font: 20px Montserrat, sans-serif; white-space: pre;"><tspan x="23.47" y="34" dominant-baseline="ideographic">Ressourcen </tspan><tspan x="83.63" y="58" dominant-baseline="ideographic">laden</tspan></text></g></g></g><g id="g-root-tx_sichtbar_1d3m7701xejnk2-fill" data-item-order="0" data-item-id="tx_sichtbar_1d3m7701xejnk2" data-item-class="Label Stroke Indexed ColorStrokeBlack" data-item-index="2" data-renderer-id="0" transform="translate(446.00006103515625, 338)"><g id="tx_sichtbar_1d3m7701xejnk2-fill" stroke="none" fill="#666666"><g><text style="font: 20px Montserrat, sans-serif; white-space: pre;"><tspan x="12" y="34" dominant-baseline="ideographic">Sichtbaren </tspan><tspan x="12" y="58" dominant-baseline="ideographic">Bereich </tspan><tspan x="12" y="82" dominant-baseline="ideographic">erkennen</tspan></text></g></g></g><g id="g-root-4.arrow-4_sy_1lymqcs1xejp5b-stroke" data-item-order="-125010" data-item-id="4.arrow-4_sy_1lymqcs1xejp5b" data-item-class="Part Indexed Fill Stroke ColorStrokeBlack" data-item-index="4" data-renderer-id="0" transform="translate(118.48300170898438, 65.25)"><g id="4.arrow-4_sy_1lymqcs1xejp5b-stroke" fill="none" stroke-linecap="round" stroke-linejoin="round" stroke-miterlimit="4" stroke="#2c2c2c" stroke-width="2"><g><path d="M 109.948998 194.416C 108.723998 183.011 110.213998 171.147 114.818998 159.771C 122.278998 141.341 136.502998 127.68 153.468998 120.492L 162.831998 142.59L 194.669998 63.937L 106.653998 10L 116.016998 32.098C 76.428998 48.872 43.239998 80.748 25.832998 123.75C 10.833998 160.804 9.999998 200.074 20.786998 235.556L 58.708998 173.674L 109.948998 194.416Z"></path></g></g></g><g id="g-root-3.arrow-3_sy_1uu9qlo1xejocm-stroke" data-item-order="-125008" data-item-id="3.arrow-3_sy_1uu9qlo1xejocm" data-item-class="Part Indexed Fill Stroke ColorStrokeBlack" data-item-index="3" data-renderer-id="0" transform="translate(113.25399780273438, 228.925048828125)"><g id="3.arrow-3_sy_1uu9qlo1xejocm-stroke" fill="none" stroke-linecap="round" stroke-linejoin="round" stroke-miterlimit="4" stroke="#2c2c2c" stroke-width="2"><g><path d="M 120.491002 51.201012L 142.590002 41.838012L 63.936002 10.000012L 10.000002 98.016012L 32.098002 88.653012C 48.872002 128.241012 80.748002 161.430012 123.750002 178.837012C 160.804002 193.836012 200.073002 194.671012 235.556002 183.883012L 173.674002 145.962012L 194.416002 94.721012C 183.011002 95.946012 171.147002 94.457012 159.770002 89.852012C 141.341002 82.391012 127.680002 68.167012 120.491002 51.201012Z"></path></g></g></g><g id="g-root-2.arrow-2_sy_1uu9qlo1xejocl-stroke" data-item-order="-125006" data-item-id="2.arrow-2_sy_1uu9qlo1xejocl" data-item-class="Part Indexed Fill Stroke ColorStrokeBlack" data-item-index="2" data-renderer-id="0" transform="translate(276.928955078125, 193.26708984375)"><g id="2.arrow-2_sy_1uu9qlo1xejocl-stroke" fill="none" stroke-linecap="round" stroke-linejoin="round" stroke-miterlimit="4" stroke="#2c2c2c" stroke-width="2"><g><path d="M 10.000014 181.620002L 98.016014 235.557002L 88.653014 213.458002C 128.241014 196.685002 161.431014 164.809002 178.838014 121.806002C 193.837014 84.752002 194.671014 45.483002 183.883014 10.000002L 145.962014 71.882002L 94.721014 51.140002C 95.946014 62.546002 94.456014 74.409002 89.851014 85.786002C 82.391014 104.215002 68.167014 117.876002 51.201014 125.065002L 41.838014 102.967002L 10.000014 181.620002Z"></path></g></g></g><g id="g-root-1.arrow-1_sy_1uu9qlo1xejock-stroke" data-item-order="-125004" data-item-id="1.arrow-1_sy_1uu9qlo1xejock" data-item-class="Part Indexed Indexed_1 Fill Stroke ColorStrokeBlack" data-item-index="1" data-renderer-id="0" transform="translate(241.27099609375, 70.47802734375)"><g id="1.arrow-1_sy_1uu9qlo1xejock-stroke" fill="none" stroke-linecap="round" stroke-linejoin="round" stroke-miterlimit="4" stroke="#2c2c2c" stroke-width="2"><g><path d="M 51.140004 109.950003C 62.545004 108.725003 74.409004 110.214003 85.785004 114.820003C 104.215004 122.280003 117.876004 136.504003 125.064004 153.470003L 102.966004 162.833003L 181.620004 194.671003L 235.556004 106.655003L 213.458004 116.018003C 196.684004 76.430003 164.809004 43.240003 121.806004 25.833003C 84.752004 10.834003 45.482004 10.000003 10.000004 20.788003L 71.882004 58.709003L 51.140004 109.950003Z"></path></g></g></g><g id="g-root-tx_lazyload_zs5oto1xejp50-stroke" data-item-order="0" data-item-id="tx_lazyload_zs5oto1xejp50" data-item-class="Label Stroke Title" data-item-index="none" data-renderer-id="0" transform="translate(182, 2)"></g><g id="g-root-tx_ladezeit_1hit88c1xejpxk-stroke" data-item-order="0" data-item-id="tx_ladezeit_1hit88c1xejpxk" data-item-class="Label Stroke Indexed ColorStrokeBlack" data-item-index="4" data-renderer-id="0" transform="translate(14, 98)"></g><g id="g-root-tx_benutzer_147z6y41xejocr-stroke" data-item-order="0" data-item-id="tx_benutzer_147z6y41xejocr" data-item-class="Label Stroke Indexed Indexed_1 ColorStrokeBlack" data-item-index="1" data-renderer-id="0" transform="translate(446.00006103515625, 98)"></g><g id="g-root-half_1hdtfjg1xemjnm-stroke" data-item-order="0" data-item-id="half_1hdtfjg1xemjnm" data-item-class="Icon Stroke Indexed InsideFill InsideColorFill ColorStrokeBlack" data-item-index="4" data-renderer-id="0" transform="translate(182, 134)"><g id="half_1hdtfjg1xemjnm-stroke" fill="none" stroke-linecap="round" stroke-linejoin="round" stroke-miterlimit="4" stroke="#2c2c2c" stroke-width="2"><g><path d="M 57 49C 57 51.209141 55.209141 53 53 53L 15 53C 12.790861 53 11 51.209141 11 49L 11 21C 11 18.790861 12.790861 17 15 17L 53 17C 55.209141 17 57 18.790861 57 21ZM 11 26.996L 57 26.996M 17 40C 17 37.238579 19.238575 35 22 35L 46 35C 48.761425 35 51 37.238579 51 40C 51 42.761425 48.761425 45 46 45L 22 45C 19.238575 45 17 42.761425 17 40ZM 21.082001 44.91L 30.996 34.996002M 29.996 44.995998L 39.996002 34.996002M 18.996 16.996L 18.996 26.996M 26.996 16.996L 26.996 26.996"></path></g></g></g><g id="g-root-2_142ze981xemi2t-stroke" data-item-order="0" data-item-id="2_142ze981xemi2t" data-item-class="Icon Stroke Indexed Indexed_1 InsideFill InsideColorFill ColorStrokeBlack" data-item-index="1" data-renderer-id="0" transform="translate(350, 134)"><g id="2_142ze981xemi2t-stroke" fill="none" stroke-linecap="round" stroke-linejoin="round" stroke-miterlimit="4" stroke="#2c2c2c" stroke-width="2"><g><path d="M 34 50.995998L 34 54.995998M 53 35.996002L 49 35.996002M 34 12.996L 34 20.996M 27.879999 49.778L 26.346001 53.472M 40.127998 49.778L 41.652 53.472M 19 35.996002L 15 35.996002M 51.551998 28.724001L 47.858002 30.256001M 20.139999 41.736L 16.445999 43.268002M 44.605999 46.604L 47.433998 49.431999M 47.433998 22.560001L 44.605999 25.388M 41.27 18.442001L 39.737999 22.138M 26.726 18.444L 28.26 22.138M 20.563999 22.560001L 23.392 25.388M 23.392 46.604L 20.563999 49.431999M 47.858002 41.736L 51.551998 43.268002M 16.445999 28.724001L 20.139999 30.256001"></path></g></g></g><g id="g-root-2_1hdtfjg1xemjnn-stroke" data-item-order="0" data-item-id="2_1hdtfjg1xemjnn" data-item-class="Icon Stroke Indexed InsideFill InsideColorFill ColorStrokeBlack" data-item-index="3" data-renderer-id="0" transform="translate(182, 302)"><g id="2_1hdtfjg1xemjnn-stroke" fill="none" stroke-linecap="round" stroke-linejoin="round" stroke-miterlimit="4" stroke="#2c2c2c" stroke-width="2"><g><path d="M 11.714286 27.142857L 20.285715 18.571428L 28.857143 27.142857M 30.571428 56.285713L 23.714287 56.285713C 21.820738 56.285713 20.285715 54.750694 20.285715 52.857143L 20.285715 18.571428M 56.285713 40.857143L 47.714287 49.428574L 39.142857 40.857143M 37.428574 11.714286L 44.285713 11.714286C 46.179264 11.714286 47.714287 13.24931 47.714287 15.142858L 47.714287 49.428574"></path></g></g></g><g id="g-root-expa_18iswdo1xemhak-stroke" data-item-order="0" data-item-id="expa_18iswdo1xemhak" data-item-class="Icon Stroke Indexed InsideFill InsideColorFill ColorStrokeBlack" data-item-index="2" data-renderer-id="0" transform="translate(350, 302)"><g id="expa_18iswdo1xemhak-stroke" fill="none" stroke-linecap="round" stroke-linejoin="round" stroke-miterlimit="4" stroke="#2c2c2c" stroke-width="2"><g><path d="M 15 14.007999L 53 14.007999C 53 14.007999 57 14.007999 57 18.007999L 57 50.007999C 57 50.007999 57 54.007999 53 54.007999L 15 54.007999C 15 54.007999 11 54.007999 11 50.007999L 11 18.007999C 11 18.007999 11 14.007999 15 14.007999M 11 24.007999L 57 24.007999M 18 18.507999C 18.276142 18.507999 18.5 18.731857 18.5 19.007999C 18.5 19.284142 18.276142 19.507999 18 19.507999C 17.723858 19.507999 17.5 19.284142 17.5 19.007999C 17.5 18.731857 17.723858 18.507999 18 18.507999M 24 18.507999C 24.276142 18.507999 24.5 18.731857 24.5 19.007999C 24.5 19.284142 24.276142 19.507999 24 19.507999C 23.723858 19.507999 23.5 19.284142 23.5 19.007999C 23.5 18.731857 23.723858 18.507999 24 18.507999M 30 18.507999C 30.276142 18.507999 30.5 18.731857 30.5 19.007999C 30.5 19.284142 30.276142 19.507999 30 19.507999C 29.723858 19.507999 29.5 19.284142 29.5 19.007999C 29.5 18.731857 29.723858 18.507999 30 18.507999M 34 47C 26.268 47 20 39 20 39C 20 39 26.268 31 34 31C 41.732002 31 48 39 48 39C 48 39 41.732002 47 34 47ZM 29 39.007999C 29 41.769424 31.238577 44.007999 34 44.007999C 36.761425 44.007999 39 41.769424 39 39.008003C 39 36.246574 36.761425 34.008003 34 34.008003C 31.238577 34.008003 29 36.246574 29 39.008003"></path></g></g></g><g id="g-root-tx_ressourc_1d3m7701xejnk1-stroke" data-item-order="0" data-item-id="tx_ressourc_1d3m7701xejnk1" data-item-class="Label Stroke Indexed ColorStrokeBlack" data-item-index="3" data-renderer-id="0" transform="translate(2, 338)"></g><g id="g-root-tx_sichtbar_1d3m7701xejnk2-stroke" data-item-order="0" data-item-id="tx_sichtbar_1d3m7701xejnk2" data-item-class="Label Stroke Indexed ColorStrokeBlack" data-item-index="2" data-renderer-id="0" transform="translate(446.00006103515625, 338)"></g></g></g></svg>